<?xml version="1.0" encoding="UTF-8"?>
<svg width="16px" height="16px" viewBox="0 0 16 16" version="1.1" xmlns="http://www.w3.org/2000/svg" xmlns:xlink="http://www.w3.org/1999/xlink">
    <!-- Generator: Sketch 55.1 (78136) - https://sketchapp.com -->
    <title>icon/headphones</title>
    <desc>Created with Sketch.</desc>
    <g id="icon/headphones" stroke="none" stroke-width="1" fill="none" fill-rule="evenodd">
        <path d="M3,8.17070571 L3,7 C3,4.23857625 5.23857625,2 8,2 C10.7614237,2 13,4.23857625 13,7 L13,8.17070571 C14.1651924,8.58254212 15,9.69378117 15,11 C15,12.6568542 13.6568542,14 12,14 L11,14 L11,8 L12,8 L12,7 C12,4.790861 10.209139,3 8,3 C5.790861,3 4,4.790861 4,7 L4,8 L5,8 L5,14 L4,14 C2.34314575,14 1,12.6568542 1,11 C1,9.69378117 1.83480763,8.58254212 3,8.17070571 Z" id="Path" fill="#FFFFFF"></path>
    </g>
</svg>