<?xml version="1.0" encoding="UTF-8"?>
<svg width="16px" height="16px" viewBox="0 0 16 16" version="1.1" xmlns="http://www.w3.org/2000/svg" xmlns:xlink="http://www.w3.org/1999/xlink">
    <!-- Generator: Sketch 55.1 (78136) - https://sketchapp.com -->
    <title>icon/loop</title>
    <desc>Created with Sketch.</desc>
    <g id="icon/loop" stroke="none" stroke-width="1" fill="none" fill-rule="evenodd">
        <path d="M7,6 L4,6 C2.34314575,6 1,7.34314575 1,9 C1,10.6568542 2.34314575,12 4,12 L12,12 C13.6568542,12 15,10.6568542 15,9 C15,7.69378117 14.1651924,6.58254212 13,6.17070571 L13,5.12601749 C14.7252272,5.57006028 16,7.13616057 16,9 C16,11.209139 14.209139,13 12,13 L4,13 C1.790861,13 0,11.209139 0,9 C0,6.790861 1.790861,5 4,5 L7,5 L7,3 L12,5.5 L7,8 L7,6 Z" id="Path" fill="#FFFFFF" fill-rule="nonzero"></path>
    </g>
</svg>